# xmcd
#
# Track frame offsets:
#	150
#	13801
#	29785
#	42306
#	58453
#	73797
#	89625
#	106274
#	122217
#	137961
#
# Disc length: 2089 seconds
#
# Revision: 0
# Processed by: cddbd v1.5.2PL0 Copyright (c) Steve Scherf et al.
# Submitted via: dBpowerAMP V4.0
#
DISCID=9f08270a
DTITLE=Levi Coby - The land of gods people
DYEAR=1900
DGENRE=Country
TTITLE0=the land of gods people
TTITLE1=thats when my life began
TTITLE2=i need to know 
TTITLE3=for all time
TTITLE4=you got something more
TTITLE5=where are you now
TTITLE6=beautiful day
TTITLE7=angels in disguise
TTITLE8=louisiana
TTITLE9=close you eyes
EXTD=Levi Coby- The land of gods people
EXTT0=
EXTT1=
EXTT2=
EXTT3=
EXTT4=
EXTT5=
EXTT6=
EXTT7=
EXTT8=
EXTT9=
PLAYORDER=
